<?xml version="1.0" encoding="utf-8"?>
<!-- Generator: Adobe Illustrator 17.0.0, SVG Export Plug-In . SVG Version: 6.00 Build 0)  -->
<!DOCTYPE svg PUBLIC "-//W3C//DTD SVG 1.1//EN" "http://www.w3.org/Graphics/SVG/1.1/DTD/svg11.dtd">
<svg version="1.1" id="Layer_1" xmlns="http://www.w3.org/2000/svg" xmlns:xlink="http://www.w3.org/1999/xlink" x="0px" y="0px"
	 width="16px" height="16px" viewBox="0 0 16 16" enable-background="new 0 0 16 16" xml:space="preserve">
<path fill="#71758E" d="M16,8c0,0-3-5.5-8-5.5S0,8,0,8s3,5.5,8,5.5S16,8,16,8z M1.173,8c0.484-0.735,1.04-1.419,1.66-2.043
	C4.12,4.668,5.88,3.5,8,3.5s3.879,1.168,5.168,2.457c0.62,0.624,1.176,1.308,1.66,2.043c-0.058,0.087-0.122,0.183-0.195,0.288
	c-0.335,0.48-0.83,1.12-1.465,1.755C11.879,11.332,10.119,12.5,8,12.5c-2.12,0-3.879-1.168-5.168-2.457
	C2.212,9.419,1.656,8.735,1.173,8L1.173,8z"/>
<path fill="#71758E" d="M8,5.5C6.619,5.5,5.5,6.619,5.5,8s1.119,2.5,2.5,2.5s2.5-1.119,2.5-2.5S9.381,5.5,8,5.5z M4.5,8
	c0-1.933,1.567-3.5,3.5-3.5s3.5,1.567,3.5,3.5S9.933,11.5,8,11.5S4.5,9.933,4.5,8z"/>
</svg>
