<?xml version="1.0" encoding="utf-8"?>
<!-- Generator: Adobe Illustrator 17.0.0, SVG Export Plug-In . SVG Version: 6.00 Build 0)  -->
<!DOCTYPE svg PUBLIC "-//W3C//DTD SVG 1.1//EN" "http://www.w3.org/Graphics/SVG/1.1/DTD/svg11.dtd">
<svg version="1.1" id="Layer_1" xmlns="http://www.w3.org/2000/svg" xmlns:xlink="http://www.w3.org/1999/xlink" x="0px" y="0px"
	 width="24px" height="24px" viewBox="10.654 13.998 24 24" enable-background="new 10.654 13.998 24 24" xml:space="preserve">
<g>
	<defs>
		<rect id="SVGID_1_" x="10.629" y="15.389" width="24.026" height="21.223"/>
	</defs>
	<clipPath id="SVGID_2_">
		<use xlink:href="#SVGID_1_"  overflow="visible"/>
	</clipPath>
	<g clip-path="url(#SVGID_2_)">
		<path fill="#0092C8" d="M25.771,23.3c-1.013-0.345-2.113-0.341-3.227,0.099c-0.386,0.153-0.753,0.193-0.942-0.149
			c0.551-0.454,0.745-0.59,1.459-0.627C24.021,22.574,24.936,22.817,25.771,23.3z M25.79,23.086
			c-1.263-0.781-2.721-1.021-4.248-0.534c-0.443,0.141-0.856,0.153-1.042-0.265c0.761-0.561,1.016-0.674,1.952-0.601
			C23.68,21.783,24.806,22.276,25.79,23.086z M19.513,28.7c1.013,0.345,2.113,0.341,3.227-0.099
			c0.386-0.153,0.753-0.193,0.942,0.149c-0.551,0.454-0.745,0.59-1.459,0.627C21.263,29.426,20.347,29.183,19.513,28.7z
			 M19.494,28.914c1.263,0.78,2.721,1.021,4.248,0.534c0.443-0.141,0.856-0.153,1.042,0.265c-0.762,0.562-1.016,0.674-1.952,0.601
			C21.604,30.217,20.478,29.724,19.494,28.914z M22.646,17.103c0.716-0.579,1.537-1.035,2.385-1.328
			c2.488-0.858,5.043-0.278,6.834,1.708c0.828,0.918,1.381,2.001,1.583,3.225c0.582,3.529-0.925,4.591,1.207,5.166
			c-2.445,2.2-5.839-3.232-8.919-4.901c-2.258-1.222-4.404-1.219-6.439,0.011c0.177,0.554,0.683,0.596,1.241,0.48
			c2.219-0.463,4.209,0.283,5.77,1.849c0.941,0.945,1.488,2.509,2.048,3.23c-0.949-0.612-2.735-3.861-3.91-1.913
			c1.798,0.597,3.093,4.232,5.985,4.436c-0.338,0.444-0.682,0.866-1.018,1.263c-1.73,2.049-3.628,3.791-5.458,5.718
			c-0.354,0.373-0.795,0.562-1.308,0.562c-0.513,0-0.954-0.19-1.308-0.562c-1.829-1.929-3.729-3.67-5.458-5.718
			c-2.022-2.392-2.996-3.42-5.252-4.203c2.384-2.176,5.946,3.29,8.919,4.901c2.257,1.222,4.404,1.219,6.439-0.012
			c-0.177-0.554-0.683-0.596-1.241-0.479c-2.219,0.464-4.209-0.283-5.77-1.85c-0.941-0.945-1.488-2.509-2.048-3.23
			c0.948,0.612,2.735,3.861,3.91,1.913c-2.298-0.763-3.776-6.494-8.816-3.666c-0.558-2.117-0.338-4.287,1.404-6.219
			c1.368-1.517,3.22-2.269,5.254-2.062C20.096,15.567,21.509,16.183,22.646,17.103z"/>
	</g>
</g>
</svg>
