<?xml version="1.0" encoding="utf-8"?>
<!-- Generator: Adobe Illustrator 17.0.0, SVG Export Plug-In . SVG Version: 6.00 Build 0)  -->
<!DOCTYPE svg PUBLIC "-//W3C//DTD SVG 1.1//EN" "http://www.w3.org/Graphics/SVG/1.1/DTD/svg11.dtd">
<svg version="1.1" id="Layer_1" xmlns="http://www.w3.org/2000/svg" xmlns:xlink="http://www.w3.org/1999/xlink" x="0px" y="0px"
	 width="24px" height="24px" viewBox="56.506 14 24 24" enable-background="new 56.506 14 24 24" xml:space="preserve">
<g>
	<defs>
		<rect id="SVGID_1_" x="58.761" y="14.007" width="19.489" height="23.986"/>
	</defs>
	<clipPath id="SVGID_2_">
		<use xlink:href="#SVGID_1_"  overflow="visible"/>
	</clipPath>
	<g clip-path="url(#SVGID_2_)">
		<path fill="#0092C8" d="M63.598,19.288c0.061,0.031,0.127,0.05,0.196,0.052c0.06,0,0.13-0.019,0.156-0.074
			c0.015-0.031,0.015-0.068,0.013-0.102c-0.006-0.142-0.012-0.285-0.018-0.426c0-0.035-0.003-0.072-0.022-0.1
			c-0.019-0.03-0.055-0.046-0.084-0.065c-0.102-0.065-0.164-0.187-0.158-0.308c0.006-0.121,0.08-0.236,0.187-0.292
			c-0.066-0.274-0.004-0.577,0.162-0.804c0.249-0.338,0.655-0.432,1.052-0.363c0.646,0.114,0.866,0.802,1.003,1.359
			c0.04,0.164,0.049,0.376-0.099,0.459c-0.038,0.021-0.084,0.029-0.118,0.059c-0.084,0.072-0.043,0.209-0.077,0.316
			c-0.068,0.212-0.392,0.215-0.512,0.401c-0.056,0.088-0.056,0.199-0.053,0.304c0.215,0.062,0.403,0.22,0.502,0.422
			c0.038,0.078,0.069,0.168,0.145,0.212c0.043,0.025,0.094,0.03,0.142,0.044c0.13,0.04,0.232,0.159,0.251,0.293
			c0.019,0.134-0.044,0.277-0.158,0.352c-0.044,0.03-0.096,0.05-0.139,0.081c-0.143,0.108-0.155,0.316-0.146,0.494
			c0.009,0.178,0.016,0.38-0.109,0.509c-0.13,0.134-0.342,0.127-0.516,0.192c-0.468,0.174-0.505,0.804-0.466,1.216
			c0.065,0.694,0.029,1.486-0.487,1.957c-0.108,0.099-0.241,0.187-0.283,0.327c-0.043,0.137,0.013,0.282,0.065,0.414
			c0.49,1.247,0.812,2.561,0.952,3.894c0.041,0.392,0.065,0.801-0.074,1.169c-0.269,0.711-1.068,1.106-1.36,1.806
			c-0.167,0.4-0.118,0.799-0.109,1.218c0.01,0.469-0.084,0.963-0.192,1.417c-0.006,0.027-0.013,0.053-0.034,0.071
			c-0.022,0.018-0.053,0.018-0.081,0.018l-0.845-0.015c0.031,0.124,0.05,0.251,0.055,0.379c0,0.019,0,0.041-0.012,0.057
			c-0.015,0.019-0.041,0.022-0.065,0.025c-0.325,0.027-0.621-0.041-0.935-0.084c-0.04,0.344,0.063,0.711,0.254,0.997
			c-0.481,0.144-1.089,0.255-1.414-0.128c-0.139-0.164-0.187-0.382-0.251-0.585c-0.184-0.591-0.531-1.129-0.995-1.542
			c-0.075-0.068-0.162-0.147-0.156-0.249c0.003-0.06,0.04-0.114,0.075-0.164c0.409-0.568,0.894-1.081,1.439-1.52
			c0.108-0.087,0.221-0.175,0.286-0.298c0.077-0.146,0.072-0.317,0.066-0.482c-0.056-1.586-0.112-3.173-0.168-4.761
			c-0.115,0.078-0.241,0.159-0.379,0.165c-0.14,0.004-0.294-0.102-0.283-0.24c0.006-0.077,0.058-0.143,0.103-0.205
			c0.36-0.495,0.446-1.177,0.22-1.746c-0.009-0.056-0.105-0.04-0.124,0.013c-0.019,0.053,0.006,0.112,0.013,0.168
			c0.032,0.224-0.232,0.411-0.453,0.36c-0.221-0.052-0.37-0.27-0.413-0.492c-0.043-0.223,0-0.451,0.038-0.675
			c0.037-0.215,0.071-0.432,0.1-0.649c0.187-1.356,0.242-2.726,0.282-4.093c0.021-0.684,0.031-1.37,0.063-2.055
			c0.024-0.522,0.053-1.028,0.528-1.356c0.04-0.028,0.083-0.055,0.109-0.096c0.028-0.044,0.031-0.1,0.034-0.152
			c0.04-0.647,0.156-1.314,0.578-1.83c0.652-0.799,1.964-0.721,2.5,0.171c0.305,0.51,0.19,1.208-0.195,1.662
			c-0.046,0.055-0.097,0.108-0.121,0.175c-0.019,0.055-0.019,0.112-0.018,0.17c0.009,0.355,0.115,0.689,0.149,1.034
			c0.034,0.345-0.061,0.662,0.05,1.009c0.043,0.134,0.099,0.267,0.19,0.373c0.047,0.055,0.105,0.102,0.168,0.136L63.598,19.288z"/>
		<path fill="#0092C8" d="M68.374,35.656c0.117-0.271,0.463-0.335,0.742-0.433c0.401-0.142,0.736-0.423,1.061-0.699
			c0.201-0.17,0.401-0.339,0.584-0.526c0.255-0.261,0.48-0.554,0.755-0.793c0.282-0.243,0.629-0.379,0.953-0.556
			c0.273-0.149,0.497-0.344,0.552-0.661c0.002-0.009,0.003-0.019-0.001-0.028c-0.006-0.012-0.021-0.015-0.034-0.016
			c-0.109-0.016-0.218-0.031-0.326-0.047c0-0.237-0.19-2.63-0.351-3.17c-0.125-0.423-0.311-0.87-0.174-1.29
			c0.061-0.186,0.18-0.346,0.252-0.528c0.114-0.29,0.099-0.615,0.081-0.926c0-0.509-0.016-1.019-0.047-1.528
			c-0.031-0.492-0.109-0.982-0.075-1.472c-0.205,0.013-0.412,0.015-0.618,0.007c-0.018,0-0.037-0.001-0.05-0.013
			c-0.018-0.013-0.022-0.037-0.027-0.058c-0.021-0.115-0.041-0.232-0.062-0.347c0.003,0.015-0.739,0.114-0.807,0.119
			c-0.198,0.019-0.406-0.093-0.463-0.298c-0.069-0.246,0.077-0.655,0.127-0.905c0.075-0.38,0.189-0.756,0.31-1.125
			c0.044-0.136,0.093-0.279,0.066-0.419c-0.099-0.537-1.205-0.442-0.928-0.975c0.137-0.262,0.221-0.551,0.248-0.846
			c0.012-0.143,0.016-0.299,0.112-0.405c0.145-0.162,0.449-0.147,0.534-0.348c0.06-0.142-0.024-0.333,0.083-0.445
			c0.05-0.053,0.128-0.068,0.201-0.08c0.155-0.025,0.308-0.05,0.463-0.077c0.187-0.031,0.385-0.065,0.534-0.183
			c0.149-0.118,0.23-0.346,0.122-0.503c1.366-0.032,2.734-0.018,4.099,0.046c0.096,0.004,0.199,0.012,0.277,0.069
			c0.083,0.062,0.117,0.168,0.146,0.268c0.075,0.254,0.152,0.509,0.227,0.762c0.288,0.063,0.577,0.128,0.865,0.192
			c0.093,0.021,0.192,0.044,0.26,0.112c0.089,0.088,0.1,0.226,0.108,0.351c0.025,0.515,0.118,1.093,0.061,1.604
			c-0.058,0.512-0.41,0.149-0.747,0.413c-0.176,0.137-0.061,0.377-0.018,0.622c0.106,0.619,0.212,1.237,0.319,1.856
			c0.032,0.187,0.047,0.419-0.108,0.529c-0.072,0.05-0.164,0.06-0.252,0.068c-0.668,0.056-1.341,0.059-2.011,0.006
			c-0.05,0.612-0.096,1.237-0.015,1.845c0.084,0.635,0.168,1.272,0.252,1.908c0.043,0.321,0.086,0.643,0.167,0.955
			c-0.134,0.004-0.269,0.01-0.403,0.015c0.335,1.078,0.927,2.002,1.446,2.987c0.013,0.025,0.027,0.05,0.024,0.078
			c-0.004,0.06-0.074,0.09-0.13,0.114c-0.074,0.031-0.14,0.077-0.196,0.134c-0.013,0.013-0.027,0.028-0.03,0.047
			c-0.003,0.018,0.004,0.034,0.012,0.049c0.156,0.357,0.319,0.694,0.298,1.097c-0.013,0.267-0.105,0.522-0.183,0.776
			c-0.239,0.776-0.362,1.579-0.485,2.381c-0.049,0.317-0.097,0.64-0.059,0.958c0.038,0.318,0.174,0.64,0.432,0.832
			c0.161,0.119,0.36,0.183,0.516,0.31c0.156,0.125,0.264,0.357,0.158,0.528l-1.988-0.422c-0.071-0.015-0.146-0.032-0.199-0.083
			c-0.139-0.131-0.03-0.358,0.064-0.525c0.139-0.246,0.233-0.521,0.273-0.801c0.114-0.779-0.176-1.588,0.012-2.352
			c0.075-0.305,0.224-0.59,0.279-0.898c0.074-0.417-0.037-0.865-0.298-1.2c-0.105,0.074-0.226,0.125-0.351,0.149
			c-0.091,0.018-0.196-0.254-0.227-0.308c-0.092-0.156-0.221-0.292-0.317-0.448c-0.078-0.125-0.149-0.261-0.266-0.351
			c0.031,0.024-0.193,2.226-0.283,2.364c-0.096,0.147-0.257,0.237-0.412,0.32c-0.825,0.457-1.659,0.899-2.486,1.349
			c-0.353,0.192-0.714,0.316-0.974,0.628c-0.246,0.295-0.428,0.662-0.421,1.054c0.003,0.189,0.049,0.373,0.094,0.556
			c0.041,0.167,0.277,0.711,0.122,0.839c-0.174,0.146-0.555-0.146-0.645-0.28c-0.152-0.226-0.156-0.519-0.277-0.762
			c-0.1-0.202-0.273-0.357-0.406-0.538c-0.133-0.181-0.226-0.423-0.137-0.63L68.374,35.656z M74.281,21.636
			c0.13,0.105,0.319,0.173,0.46,0.204c0.201,0.044,0.407,0.059,0.609,0.103c0.257,0.056,0.502,0.159,0.757,0.221
			c0.238,0.058,0.482,0.078,0.726,0.062c-0.049-0.389-0.097-0.78-0.146-1.169l-0.072-0.572c-0.018-0.137-0.075-0.288-0.08-0.422
			c-0.044,0.119-0.263,0.19-0.367,0.24c-0.137,0.065-0.285,0.142-0.434,0.175c-0.196,0.046-0.4,0.071-0.602,0.106
			c-0.074,0.013-0.148,0.027-0.221,0.044c-0.01,0.003-0.022,0.004-0.03,0.012c-0.022,0.018-0.016,0.053-0.013,0.081
			c0.013,0.13-0.092,0.249-0.212,0.296c-0.186,0.072-0.338-0.027-0.453,0.143c-0.137,0.202-0.065,0.361,0.077,0.476L74.281,21.636z
			 M73.05,20.968c-0.006-0.146-0.019-0.29-0.019-0.438c0-0.052,0-0.106-0.024-0.153c-0.03-0.06-0.091-0.097-0.145-0.137
			c-0.092-0.069-0.167-0.159-0.254-0.236c-0.075-0.066-0.159-0.122-0.248-0.165c-0.201-0.099-0.431-0.14-0.654-0.114
			c-0.084,0.274-0.273,0.451-0.328,0.743c-0.068,0.357-0.111,0.74-0.078,1.103c0.211-0.01,0.335-0.149,0.482-0.279
			c0.121-0.108,0.28-0.17,0.443-0.175c0.277-0.009,0.54,0.145,0.817,0.143c0.01-0.097,0.01-0.195,0.007-0.29L73.05,20.968z"/>
	</g>
</g>
</svg>
