<?xml version="1.0" encoding="utf-8"?>
<!-- Generator: Adobe Illustrator 17.0.0, SVG Export Plug-In . SVG Version: 6.00 Build 0)  -->
<!DOCTYPE svg PUBLIC "-//W3C//DTD SVG 1.1//EN" "http://www.w3.org/Graphics/SVG/1.1/DTD/svg11.dtd">
<svg version="1.1" id="Layer_1" xmlns="http://www.w3.org/2000/svg" xmlns:xlink="http://www.w3.org/1999/xlink" x="0px" y="0px"
	 width="24px" height="24px" viewBox="37 14 24 24" enable-background="new 37 14 24 24" xml:space="preserve">
<g>
	<defs>
		<rect id="SVGID_1_" x="41.201" y="14.023" width="15.598" height="23.953"/>
	</defs>
	<clipPath id="SVGID_2_">
		<use xlink:href="#SVGID_1_"  overflow="visible"/>
	</clipPath>
	<g clip-path="url(#SVGID_2_)">
		<path fill="#0092C8" d="M56.581,28.09c-1.201-5.197-5.652-8.687-7.421-13.582c-0.034-0.165-0.125-0.327-0.185-0.484
			c-1.8,4.719-5.784,8.26-7.339,13.103c-1.672,5.207,1.637,10.829,7.34,10.851C54.158,37.948,57.738,33.093,56.581,28.09
			L56.581,28.09z M48.98,34.375c-4.328-0.017-6.839-4.283-5.57-8.234c1.18-3.675,4.204-6.363,5.569-9.943
			c0.046,0.119,0.115,0.243,0.141,0.367c1.343,3.715,4.72,6.363,5.632,10.307C55.63,30.67,52.914,34.353,48.98,34.375z
			 M53.988,34.474c0.568-0.958,1.069-1.861,1.434-2.923c0.272-1.088,0.342-2.124,0.399-3.234
			C56.398,30.578,55.717,32.907,53.988,34.474L53.988,34.474z"/>
		<path fill="#0092C8" d="M53.848,27.179c-3.018,3.038-5.173-0.034-7.306,1.198c-2.149,1.676,3.091,4.046,6.241,1.041
			c-2.351,3.056-6.77,2.266-7.517,0.284c-1.256-3.636,2.115-5.269,3.716-11.52c-1.152,3.018-3.7,5.283-4.695,8.381
			c-1.07,3.33,1.047,6.926,4.695,6.94C52.298,33.484,54.588,30.379,53.848,27.179L53.848,27.179z M46.761,32.449
			c1.373,0.924,3.805,0.641,5.083-0.316C50.701,33.335,48.009,33.636,46.761,32.449z"/>
	</g>
</g>
</svg>
