<?xml version="1.0" encoding="utf-8"?>
<!-- Generator: Adobe Illustrator 17.0.0, SVG Export Plug-In . SVG Version: 6.00 Build 0)  -->
<!DOCTYPE svg PUBLIC "-//W3C//DTD SVG 1.1//EN" "http://www.w3.org/Graphics/SVG/1.1/DTD/svg11.dtd">
<svg version="1.1" id="Layer_1" xmlns="http://www.w3.org/2000/svg" xmlns:xlink="http://www.w3.org/1999/xlink" x="0px" y="0px"
	 width="24px" height="24px" viewBox="44.506 5 24 24" enable-background="new 44.506 5 24 24" xml:space="preserve">
<g>
	<defs>
		<rect id="SVGID_1_" x="44.506" y="7.938" width="24" height="18.124"/>
	</defs>
	<clipPath id="SVGID_2_">
		<use xlink:href="#SVGID_1_"  overflow="visible"/>
	</clipPath>
	<g clip-path="url(#SVGID_2_)">
		<path fill="#0092C8" d="M59.178,18.717l-0.821-0.818c-3.047-2.695-5.038-4.512-5.038-6.74c-0.001-1.814,1.407-3.221,3.221-3.221
			c0.999,0,1.994,0.47,2.638,1.23c0.644-0.761,1.639-1.23,2.638-1.23c1.813,0,3.221,1.407,3.221,3.221
			c0,2.229-1.991,4.045-5.038,6.74L59.178,18.717L59.178,18.717z"/>
		<path fill="#0092C8" d="M68.505,18.585c-0.217,0.236-0.476,0.441-0.713,0.656c-0.286,0.26-0.579,0.511-0.876,0.758
			c-0.551,0.46-1.113,0.906-1.666,1.363c-0.109-0.277-0.344-0.514-0.588-0.676c-0.371-0.247-0.819-0.373-1.27-0.439
			c0.278-0.361,0.745-0.51,1.147-0.688c0.469-0.207,0.844-0.534,1.246-0.845c0.396-0.307,0.826-0.585,1.339-0.622
			C67.604,18.056,68.193,18.193,68.505,18.585z"/>
		<path fill="#0092C8" d="M67.908,17.612c-0.038,0.118-0.124,0.225-0.193,0.325c-0.135-0.027-0.271-0.043-0.406-0.05
			c-0.566-0.032-1.073,0.239-1.515,0.566c-0.443,0.328-0.839,0.702-1.348,0.927c-0.473,0.209-0.98,0.384-1.278,0.835
			c-0.001,0.001-0.002,0.003-0.002,0.004c-0.148-0.016-0.295-0.025-0.438-0.032c-0.049-0.002-0.098-0.004-0.146-0.005
			c0.334-0.363,0.754-0.635,1.172-0.895c0.462-0.287,0.904-0.585,1.328-0.926c0.425-0.342,0.86-0.701,1.378-0.893
			C66.918,17.298,67.538,17.242,67.908,17.612L67.908,17.612z"/>
		<path fill="#0092C8" d="M66.214,17.346c-0.397,0.177-0.753,0.455-1.087,0.721c-0.221,0.176-0.438,0.356-0.668,0.523
			c-0.24,0.174-0.495,0.329-0.747,0.485c-0.505,0.313-1.019,0.638-1.397,1.105c-0.371,0.003-0.743,0.027-1.113,0.055
			c0.329-0.329,0.716-0.597,1.093-0.869c0.433-0.313,0.818-0.663,1.207-1.027c0.379-0.354,0.782-0.697,1.271-0.887
			C65.221,17.279,65.741,17.242,66.214,17.346L66.214,17.346z"/>
		<path fill="#0092C8" d="M60.002,22.485c-0.024-0.004-0.047-0.004-0.059-0.01c-0.133-0.012-0.266-0.022-0.399-0.03l-0.333-0.016
			c-0.005-0.003-0.048,0.004-0.053,0c-0.18-0.004-0.36-0.003-0.54,0.004l-0.191,0.011c-0.166,0.011-0.332,0.027-0.496,0.051
			c-0.746,0.106-1.456,0.334-2.131,0.667c-0.116,0.058-0.219-0.117-0.102-0.174c0.751-0.37,1.545-0.621,2.379-0.713
			c0.636-0.07,1.276-0.057,1.911,0.002c0.012,0,0.024,0.002,0.036,0.003c0.094,0.009,0.187,0.019,0.281,0.03
			c0.624,0.073,1.242,0.191,1.868,0.246c0.631,0.056,1.296,0.07,1.902-0.14c0.472-0.164,1.166-0.389,1.013-0.994
			c-0.148-0.584-0.793-0.706-1.32-0.855c-0.703-0.199-1.44-0.21-2.167-0.191c-0.721,0.02-1.444-0.112-2.165-0.131
			c-0.679-0.017-1.37-0.286-1.966-0.63c-0.007-0.003-0.015-0.007-0.022-0.012c-0.003-0.002-0.007-0.004-0.01-0.007
			c-0.001,0-0.002-0.001-0.003-0.002c-0.003-0.001-0.004-0.003-0.007-0.004c-0.982-0.677-2.042-1.554-3.29-1.593
			c-0.658-0.021-1.293,0.158-1.932,0.288c-0.313,0.064-0.637,0.129-0.958,0.135c-0.319,0.007-0.637,0.001-0.957,0
			c-0.744-0.004-1.482,0.036-2.183,0.306c-0.669,0.258-1.309,0.592-1.897,1.004c-0.588,0.413-1.09,0.911-1.609,1.405
			c-0.033,0.031-0.067,0.063-0.1,0.095l2.717,4.059c0.162-0.119,0.33-0.228,0.506-0.324c0.636-0.348,1.322-0.511,2.048-0.5
			c0.736,0.011,1.474,0.141,2.19,0.305c0.801,0.183,1.592,0.404,2.386,0.613c0.789,0.208,1.585,0.409,2.39,0.545
			c0.78,0.131,1.615,0.209,2.395,0.033c0.008-0.002,0.015-0.002,0.022-0.003c0.739-0.443,1.354-1.052,1.962-1.655
			c0.304-0.301,0.607-0.603,0.928-0.885c0.247-0.217,0.502-0.444,0.784-0.621c-0.778-0.001-1.563-0.159-2.334-0.26l-0.498-0.051
			L60.002,22.485z"/>
		<path fill="#0092C8" d="M61.26,19.832c0.006,0,0.011,0,0.017-0.001v-0.015C61.272,19.822,61.266,19.827,61.26,19.832z"/>
	</g>
</g>
</svg>
