<svg width="24" height="24" viewBox="0 0 24 24" fill="none" xmlns="http://www.w3.org/2000/svg">
<path d="M19 0.5C21.5 0.5 23.5 2.5 23.5 5V19C23.5 21.5 21.5 23.5 19 23.5H5C2.5 23.5 0.5 21.5 0.5 19V5C0.5 2.5 2.5 0.5 5 0.5H19ZM12 5.8C8.5 5.8 5.8 8.6 5.8 12C5.8 15.5 8.6 18.2 12 18.2C15.5 18.2 18.2 15.4 18.2 12C18.2 8.5 15.5 5.8 12 5.8ZM12 7.2C14.6 7.2 16.8 9.3 16.8 12C16.8 14.6 14.7 16.8 12 16.8C9.4 16.8 7.2 14.7 7.2 12C7.2 9.4 9.4 7.2 12 7.2ZM19 3.5C18.2 3.5 17.5 4.2 17.5 5C17.5 5.8 18.2 6.5 19 6.5C19.8 6.5 20.5 5.8 20.5 5C20.5 4.2 19.8 3.5 19 3.5Z" fill="#0092C8"/>
</svg>
