<svg width="24" height="21" viewBox="0 0 24 21" fill="none" xmlns="http://www.w3.org/2000/svg">
<path d="M21.3002 2.90047L22.8002 2.20047C23.1002 2.10047 23.5002 2.30047 23.5002 2.70047C23.5002 3.30047 23.3002 4.40047 22.6002 6.10047C22.4002 9.00047 21.1002 13.2005 18.7002 16.1005C15.0002 20.6005 9.30021 21.8005 1.50021 18.5005C1.00021 18.3005 1.10021 17.5005 1.70021 17.5005C3.70021 17.5005 5.60021 17.0005 7.30021 16.2005C5.60021 15.8005 4.30021 14.5005 3.60021 12.8005V12.7005L3.40021 12.6005C1.70021 11.5005 0.50021 9.50047 0.60021 7.20047L1.00021 7.00047C0.10021 5.30047 0.50021 3.10047 1.70021 2.00047C1.90021 1.80047 2.10021 1.80047 2.30021 2.00047C5.20021 4.10047 7.10021 5.10047 10.5002 6.00047C11.0002 0.700474 17.1002 -1.49953 21.3002 2.90047Z" fill="#0092C8"/>
</svg>
